<svg version="1.1" id="Calque_1" xmlns="http://www.w3.org/2000/svg" xmlns:xlink="http://www.w3.org/1999/xlink" x="0px" y="0px" width="612px" height="113.316px" viewBox="0 0 612 113.316" enable-background="new 0 0 612 113.316" xml:space="preserve">
                     <g>
                        <g id="_01.logo-orbiwise-web_1_" transform="translate(10780 136.1)">
                           <g id="LOGO_1_" transform="translate(17 4)">
                              <g id="Groupe_2_1_" transform="translate(874.267 32)">
                                 <g id="Groupe_1_1_">
                                    <path id="Tracé_1_1_" fill="#FFFFFF" d="M-11535.667-113.29c0-17.93,14.344-32.513,32.273-32.752
                                       c17.93,0,32.512,14.344,32.752,32.273c0,17.93-14.344,32.513-32.273,32.752h-0.238c-17.691,0.239-32.273-13.866-32.512-31.556
                                       l0,0v-0.717L-11535.667-113.29L-11535.667-113.29z M-11489.05-113.29c0.238-7.65-5.738-14.105-13.627-14.344
                                       c-7.65-0.239-14.105,5.737-14.344,13.627v0.956c-0.238,7.65,5.738,14.105,13.627,14.344c7.65,0.239,14.105-5.737,14.344-13.627
                                       V-113.29z"></path>
                                    <path id="Tracé_2_1_" fill="#FFFFFF" d="M-11423.546-144.846v20.798c-7.65-1.195-18.168,1.913-18.168,13.866v27.492h-18.167
                                       v-61.439h18.167v10.997C-11439.563-141.021-11431.435-144.846-11423.546-144.846z"></path>
                                    <path id="Tracé_3_1_" fill="#FFFFFF" d="M-11349.198-113.29c0,18.169-13.387,32.273-29.404,32.273
                                       c-6.934,0.478-13.627-2.391-18.168-7.65v5.737h-18.168v-85.822h18.168v30.122c4.543-5.259,11.236-7.889,18.168-7.65
                                       C-11362.347-145.563-11349.198-131.459-11349.198-113.29z M-11367.604-113.29c0.238-8.128-6.214-14.822-14.105-14.822l0,0
                                       c-8.129-0.239-14.822,6.216-14.822,14.105l0,0v0.717c-0.479,7.65,5.26,14.344,12.91,14.822h0.238h1.674
                                       C-11373.821-98.229-11367.604-103.967-11367.604-113.29z"></path>
                                    <path id="Tracé_4_1_" fill="#FFFFFF" d="M-11338.679-143.651h18.168v61.2h-18.168V-143.651z"></path>
                                    <path id="Tracé_5_1_" fill="#FFFFFF" d="M-11214.604-160.863c0-5.977,5.02-10.997,10.996-10.997h0.238
                                       c5.977,0.239,10.758,5.02,10.996,10.997c0,5.977-5.02,10.758-10.996,10.997s-10.996-4.542-11.236-10.519
                                       C-11214.604-160.385-11214.604-160.624-11214.604-160.863z M-11212.692-143.651h18.168v61.2h-18.168V-143.651z"></path>
                                    <path id="Tracé_6_1_" fill="#FFFFFF" d="M-11133.802-100.859c0,13.866-12.191,20.081-25.34,20.081
                                       c-12.19,0-21.516-4.781-26.297-14.583l16.019-9.323c1.195,4.542,5.738,7.65,10.52,7.172c4.543,0,6.693-1.434,6.693-3.825
                                       c0-6.694-30.121-3.347-30.121-24.384c0-13.627,11.475-20.081,23.906-20.081c9.801-0.239,18.887,4.781,23.906,13.148
                                       l-15.539,8.367c-1.434-3.347-4.781-5.498-8.367-5.498c-3.348,0-5.26,1.195-5.26,3.586
                                       C-11163.925-118.788-11133.802-123.57-11133.802-100.859z"></path>
                                    <path id="Tracé_7_1_" fill="#FFFFFF" d="M-11094.356-97.273c4.543,0.239,8.846-1.673,11.953-4.781l14.582,8.367
                                       c-5.977,8.367-15.061,12.67-26.775,12.67c-20.799,0-33.947-13.866-33.947-32.273c0-18.169,13.387-32.273,32.752-32.273
                                       c17.691,0,31.078,13.866,31.078,32.273c0,2.391-0.238,5.02-0.717,7.411h-43.27
                                       C-11106.55-99.663-11101.05-97.273-11094.356-97.273z M-11082.882-119.506c-1.434-5.977-6.934-10.041-13.148-9.802
                                       c-7.172,0-11.715,3.347-13.627,9.802H-11082.882z"></path>
                                    <path id="Tracé_8_1_" fill="#FFFFFF" d="M-11219.864-143.651l-19.363,61.2h-17.213l-9.8-32.752l-9.801,32.752h-16.973
                                       l-19.842-61.2h19.363l8.846,32.752l9.801-32.752h16.973l9.8,32.752l8.846-32.752
                                       C-11239.706-143.651-11219.864-143.651-11219.864-143.651z"></path>
                                 </g>
                                 <path id="Tracé_9_1_" fill="#FFFFFF" d="M-11340.591-160.863c0-5.977,4.781-10.997,10.758-11.236h0.238
                                    c5.977,0,10.996,4.781,11.236,10.758v0.239v0.239c0,5.977-5.02,10.758-10.996,10.997s-10.995-4.542-11.236-10.519
                                    C-11340.591-160.385-11340.591-160.624-11340.591-160.863z"></path>
                              </g>
                           </g>
                        </g>
                        <g>
                           <linearGradient id="SVGID_1_" gradientUnits="userSpaceOnUse" x1="52.2015" y1="-310.2127" x2="18.6864" y2="-290.2559" gradientTransform="matrix(2.3906 0 0 2.3906 -1.3906 810.4581)">
                              <stop offset="5.468750e-04" style="stop-color: rgb(220, 0, 9);"></stop>
                              <stop offset="1" style="stop-color: rgb(89, 1, 0);"></stop>
                           </linearGradient>
                           <path fill="url(#SVGID_1_)" d="M79.5,80.804c-2.391,2.63-5.259,4.542-8.606,6.216c3.825,6.216,5.977,11.953,8.128,17.452
                              c0.478,1.195,0.956,2.63,1.434,3.825c3.108-1.434,5.977-3.108,8.606-5.02c-1.195-2.869-2.152-5.498-3.347-8.128
                              C84.042,90.366,82.369,85.824,79.5,80.804z"></path>
                           <linearGradient id="SVGID_2_" gradientUnits="userSpaceOnUse" x1="38.1518" y1="-333.8076" x2="4.6367" y2="-313.851" gradientTransform="matrix(2.3906 0 0 2.3906 -1.3906 810.4581)">
                              <stop offset="5.468750e-04" style="stop-color: rgb(220, 0, 9);"></stop>
                              <stop offset="1" style="stop-color: rgb(89, 1, 0);"></stop>
                           </linearGradient>
                           <path fill="url(#SVGID_2_)" d="M27.862,67.177c-0.717-2.63-0.956-5.259-0.956-8.367c0-0.956,0-1.913,0.239-3.108
                              c-0.956-0.478-2.152-0.717-3.108-1.195c-5.977-2.152-12.192-4.542-19.125-9.323C3.956,48.77,3.478,52.595,3.239,56.42
                              c3.825,1.912,7.65,3.347,11.475,4.781C18.778,63.113,23.32,64.787,27.862,67.177z"></path>
                           <linearGradient id="SVGID_3_" gradientUnits="userSpaceOnUse" x1="35.7142" y1="-337.9012" x2="2.1991" y2="-317.9446" gradientTransform="matrix(2.3906 0 0 2.3906 -1.3906 810.4581)">
                              <stop offset="5.468750e-04" style="stop-color: rgb(220, 0, 9);"></stop>
                              <stop offset="1" style="stop-color: rgb(89, 1, 0);"></stop>
                           </linearGradient>
                           <path fill="url(#SVGID_3_)" d="M27.623,51.638c0.717-3.347,1.913-6.216,3.347-9.084c-6.216-2.391-12.909-5.498-20.559-11.475
                              c-1.913,3.108-3.347,6.455-4.542,10.041c7.172,5.02,13.148,7.172,19.364,9.562C26.189,51.16,26.906,51.399,27.623,51.638z"></path>
                           <linearGradient id="SVGID_4_" gradientUnits="userSpaceOnUse" x1="51.5666" y1="-311.2789" x2="18.0515" y2="-291.3223" gradientTransform="matrix(2.3906 0 0 2.3906 -1.3906 810.4581)">
                              <stop offset="5.468750e-04" style="stop-color: rgb(220, 0, 9);"></stop>
                              <stop offset="1" style="stop-color: rgb(89, 1, 0);"></stop>
                           </linearGradient>
                           <path fill="url(#SVGID_4_)" d="M67.069,88.693c-3.108,0.956-6.216,1.434-9.562,1.434c-0.956,0-1.912,0-2.869-0.239
                              c6.933,8.606,10.041,15.778,12.67,22.472c3.108-0.478,6.216-1.434,9.323-2.63c-0.478-1.434-0.956-2.63-1.434-4.064
                              C73.045,100.407,70.894,94.908,67.069,88.693z"></path>
                           <linearGradient id="SVGID_5_" gradientUnits="userSpaceOnUse" x1="45.6856" y1="-321.1553" x2="12.1705" y2="-301.1986" gradientTransform="matrix(2.3906 0 0 2.3906 -1.3906 810.4581)">
                              <stop offset="5.468750e-04" style="stop-color: rgb(220, 0, 9);"></stop>
                              <stop offset="1" style="stop-color: rgb(89, 1, 0);"></stop>
                           </linearGradient>
                           <path fill="url(#SVGID_5_)" d="M30.014,73.393c-5.977-3.825-11.236-5.737-16.973-7.889C9.694,64.309,6.586,63.113,3,61.44
                              c0.239,3.825,0.717,7.65,1.673,11.236c9.323,3.586,19.125,7.411,32.273,20.32c7.65,7.65,12.192,14.105,15.3,20.081
                              c1.673,0.239,3.586,0.239,5.259,0.239c1.912,0,3.825,0,5.498-0.239c-2.869-7.411-6.455-15.061-15.061-24.384
                              C40.055,86.302,33.6,80.804,30.014,73.393z"></path>
                           <linearGradient id="SVGID_6_" gradientUnits="userSpaceOnUse" x1="43.0552" y1="-325.5729" x2="9.5401" y2="-305.6162" gradientTransform="matrix(2.3906 0 0 2.3906 -1.3906 810.4581)">
                              <stop offset="5.468750e-04" style="stop-color: rgb(220, 0, 9);"></stop>
                              <stop offset="1" style="stop-color: rgb(89, 1, 0);"></stop>
                           </linearGradient>
                           <path fill="url(#SVGID_6_)" d="M57.506,4.543c-18.408,0-34.903,8.845-44.705,22.95c7.65,6.216,14.105,9.084,20.798,11.475
                              c5.498-6.933,14.105-11.236,23.906-11.236c16.973,0,30.6,12.431,30.6,31.078c0,7.172-1.912,13.387-5.498,18.408
                              c3.586,5.977,5.498,11.236,7.411,16.256c0.956,2.391,1.673,4.542,2.63,6.933c11.714-9.802,19.364-24.623,19.364-41.836
                              C111.773,28.21,87.389,4.543,57.506,4.543z"></path>
                        </g>
                     </g>
                  </svg>